<svg width="132" height="46" viewBox="0 0 132 46" fill="none" xmlns="http://www.w3.org/2000/svg">
<path d="M24.8187 25.8721C24.2249 26.568 23.4503 27.0614 22.5928 27.2899C21.7352 27.5184 20.8332 27.4717 20.0006 27.1558C19.1679 26.8398 18.4421 26.2688 17.9148 25.5148C17.3875 24.7608 17.0824 23.8577 17.0379 22.9196C16.9934 21.9814 17.2116 21.0503 17.665 20.2438C18.1183 19.4374 18.7865 18.7918 19.585 18.3885C20.3835 17.9853 21.2766 17.8426 22.1514 17.9784C23.0263 18.1142 23.8436 18.5224 24.5002 19.1515C24.9394 19.5685 25.2963 20.0741 25.5503 20.6387C25.8044 21.2034 25.9504 21.816 25.98 22.4411C26.0097 23.0662 25.9223 23.6913 25.7229 24.2802C25.5236 24.8691 25.2162 25.4102 24.8187 25.8721Z" fill="url(#paint0_radial_3307_3802)"/>
<path d="M22.6724 6.40764C23.0352 6.78286 23.3802 7.17705 23.706 7.58875C24.785 8.95742 25.6738 10.4833 26.3454 12.1198C27.4058 12.3313 28.4858 12.4101 29.5634 12.3546H29.7519H29.9274C32.8533 12.0747 35.5872 10.6873 37.6311 8.44523L37.9041 8.14823C37.501 7.63019 37.0785 7.12598 36.6039 6.64248C32.9709 2.78891 28.1545 0.452237 23.0343 0.0591283C17.9141 -0.33398 12.8316 1.2427 8.71484 4.50128C15.2873 1.11681 19.8445 3.4445 22.6724 6.40764Z" fill="url(#paint1_linear_3307_3802)"/>
<path d="M7.53193 29.4843C7.66195 28.9456 7.81797 28.4275 7.987 27.9371C8.56534 26.2612 9.36659 24.6818 10.3663 23.2472C10.0089 22.1672 9.53326 21.1356 8.94914 20.1736L8.84512 20.0216L8.74111 19.8696C7.05485 17.309 4.55836 15.4778 1.70708 14.7101L1.31053 14.6064C1.09599 15.235 0.887964 15.8773 0.71894 16.5404C-0.601392 21.8144 -0.0918525 27.4169 2.15447 32.3247C4.4008 37.2325 8.23397 41.1178 12.9537 43.2709C6.91434 38.9194 6.51128 33.5595 7.53193 29.4843Z" fill="url(#paint2_linear_3307_3802)"/>
<path d="M33.9582 31.9017C33.4511 32.0536 32.9505 32.1711 32.4694 32.2608C30.8144 32.5675 29.1265 32.621 27.4572 32.4197C26.7547 33.2881 26.1504 34.2408 25.6564 35.2585L25.5719 35.4381L25.5004 35.6039C24.271 38.4375 24.0403 41.6461 24.8503 44.6453C24.8503 44.7765 24.9218 44.9077 24.9608 45.0459C25.6109 44.9284 26.209 44.7972 26.8266 44.6245C31.7809 43.2021 36.0887 39.9343 38.9637 35.4176C41.8388 30.9009 43.0894 25.4365 42.4874 20.0215C41.9608 27.7505 37.7807 30.7758 33.9582 31.9017Z" fill="#C4C4C4"/>
<path d="M33.9582 31.9017C33.4511 32.0536 32.9505 32.1711 32.4694 32.2608C30.8144 32.5675 29.1265 32.621 27.4572 32.4197C26.7547 33.2881 26.1504 34.2408 25.6564 35.2585L25.5719 35.4381L25.5004 35.6039C24.271 38.4375 24.0403 41.6461 24.8503 44.6453C24.8503 44.7765 24.9218 44.9077 24.9608 45.0459C25.6109 44.9284 26.209 44.7972 26.8266 44.6245C31.7809 43.2021 36.0887 39.9343 38.9637 35.4176C41.8388 30.9009 43.0894 25.4365 42.4874 20.0215C41.9608 27.7505 37.7807 30.7758 33.9582 31.9017Z" fill="url(#paint3_linear_3307_3802)"/>
<path d="M8.71432 4.50133C5.58028 6.83091 3.13224 10.057 1.6543 13.8052C3.85643 14.3009 5.89628 15.4057 7.56751 17.0079C9.23874 18.6101 10.4821 20.6528 11.1717 22.9294C11.7633 22.5288 13.5705 21.0093 14.7862 16.8236C16.2619 11.7331 19.0508 8.03086 22.6719 6.40769C22.6719 6.40769 18.0822 -0.533933 8.71432 4.50133Z" fill="url(#paint4_linear_3307_3802)"/>
<path d="M23.4147 40.9362C23.409 37.5396 24.6065 34.2651 26.7692 31.7636V31.7153C26.3336 31.218 24.8189 29.9954 20.8598 30.9486C16.0036 32.1228 10.6403 31.9915 7.50685 29.4705C7.50685 29.4705 4.13936 37.165 12.9286 43.2846C16.4006 45.0104 20.2626 45.6524 24.0648 45.1357C23.6317 43.7835 23.412 42.3646 23.4147 40.9362Z" fill="url(#paint5_linear_3307_3802)"/>
<path d="M38.4572 8.87354C37.2742 10.3011 35.8191 11.4451 34.1884 12.2299C32.5577 13.0146 30.7886 13.4221 28.9984 13.4253C28.0547 13.4236 27.1137 13.3195 26.19 13.1145H26.1444C25.9624 13.8052 25.8129 15.8152 28.4913 18.8819C31.8653 22.7844 34.4657 27.7575 33.9586 31.9018C33.9586 31.9018 41.9092 31.1558 42.4878 20.0147C42.1615 15.9711 40.7641 12.1083 38.4572 8.87354Z" fill="url(#paint6_linear_3307_3802)"/>
<path d="M60.1641 17.7257C61.2353 17.5509 62.3183 17.4707 63.4019 17.4857C64.5485 17.3892 65.6916 17.714 66.6398 18.4057C67.0086 18.7278 67.3025 19.136 67.4984 19.5986C67.6943 20.0612 67.787 20.5656 67.7693 21.0725C67.7872 21.5646 67.7095 22.0553 67.5411 22.5141C67.3727 22.9729 67.1171 23.39 66.7904 23.7393C65.8281 24.5854 64.5983 25.0098 63.3517 24.926C63.0801 24.9463 62.8076 24.9463 62.536 24.926V28.9261H60.1641V17.7257ZM62.536 22.8459C62.8006 22.8996 63.0699 22.922 63.3392 22.9126C64.5942 22.9126 65.3974 22.2325 65.3974 21.0725C65.3974 19.9124 64.7197 19.4191 63.5274 19.4191C63.1946 19.4073 62.8617 19.4387 62.536 19.5124V22.8459Z" fill="#202020"/>
<path d="M79.7294 23.0857C79.7294 26.7792 77.621 29.0193 74.5212 29.0193C71.4214 29.0193 69.5012 26.4992 69.5012 23.2858C69.4418 22.5308 69.5314 21.7709 69.7643 21.0548C69.9973 20.3388 70.3684 19.6823 70.854 19.1275C71.3396 18.5727 71.9289 18.1317 72.5841 17.8329C73.2394 17.5341 73.9462 17.384 74.6592 17.3922C77.9473 17.3922 79.7294 19.9789 79.7294 23.0857ZM72.074 23.2324C72.074 25.4325 73.0528 26.9926 74.6467 26.9926C76.2405 26.9926 77.1566 25.3525 77.1566 23.1657C77.1566 20.979 76.2405 19.4056 74.6467 19.4056C73.0528 19.4056 72.074 21.0723 72.074 23.2457V23.2324Z" fill="#202020"/>
<path d="M89.8695 28.5126C89.0042 28.8789 88.0771 29.0514 87.1461 29.0193C83.4816 29.0193 81.5991 26.5792 81.5991 23.3791C81.5652 22.5701 81.6929 21.7627 81.9739 21.0099C82.2548 20.2572 82.6827 19.5762 83.2293 19.0119C83.7759 18.4476 84.4288 18.0126 85.145 17.7357C85.8612 17.4588 86.6245 17.3463 87.3846 17.4055C88.2779 17.3705 89.1678 17.5387 89.995 17.8988L89.5055 19.9256C88.8688 19.6471 88.1861 19.5066 87.4975 19.5122C86.61 19.5689 85.7764 19.9833 85.1668 20.671C84.5573 21.3587 84.2178 22.2677 84.2178 23.2124C84.2178 24.157 84.5573 25.066 85.1668 25.7537C85.7764 26.4414 86.61 26.8559 87.4975 26.9125C88.1778 26.9095 88.8526 26.7832 89.493 26.5392L89.8695 28.5126Z" fill="#202020"/>
<path d="M94.0997 25.2993L92.9953 28.8461H91.5771L95.179 17.5923H96.823L100.437 28.8461H98.9816L97.8521 25.2993H94.0997ZM97.5509 24.1659L96.5092 20.9258C96.2708 20.1924 96.1202 19.5257 95.957 18.8723C95.7939 19.539 95.6308 20.2057 95.4174 20.9124L94.3758 24.1659H97.5509Z" fill="#202020"/>
<path d="M103.586 18.8189H100.36V17.5789H108.204V18.8189H104.966V28.8327H103.586V18.8189Z" fill="#202020"/>
<path d="M118.797 23.0858C118.797 26.9526 116.576 29.0193 113.877 29.0193C111.179 29.0193 109.121 26.7126 109.121 23.3124C109.121 19.9123 111.217 17.4055 114.041 17.4055C116.864 17.4055 118.797 19.739 118.797 23.0858ZM110.577 23.2724C110.577 25.6725 111.832 27.8326 113.953 27.8326C116.074 27.8326 117.341 25.7125 117.341 23.1524C117.341 20.9123 116.237 18.5789 113.965 18.5789C111.694 18.5789 110.577 20.8057 110.577 23.2724Z" fill="#202020"/>
<path d="M130.294 23.8857C130.181 22.3257 130.181 20.4323 130.181 19.0322C129.818 20.3656 129.378 21.7656 128.851 23.3124L126.981 28.7659H125.94L124.233 23.4324C123.731 21.8456 123.304 20.3922 122.978 19.0589C122.978 20.4589 122.865 22.3523 122.777 24.0324L122.488 28.8593H121.233L121.974 17.6055H123.718L125.525 23.0457C125.965 24.3791 126.329 25.7125 126.592 26.8325C126.856 25.6991 127.232 24.4591 127.709 23.0457L129.592 17.6055H131.336L132.001 28.8593H130.558L130.294 23.8857Z" fill="#202020"/>
<defs>
<radialGradient id="paint0_radial_3307_3802" cx="0" cy="0" r="1" gradientUnits="userSpaceOnUse" gradientTransform="translate(20.0289 19.8528) scale(6.27965 6.67197)">
<stop stop-color="#5085BC"/>
<stop offset="1" stop-color="#0B0A54"/>
</radialGradient>
<linearGradient id="paint1_linear_3307_3802" x1="32.1894" y1="11.733" x2="11.9107" y2="2.34628" gradientUnits="userSpaceOnUse">
<stop stop-color="#0B0A54"/>
<stop offset="1" stop-color="#5085BC"/>
</linearGradient>
<linearGradient id="paint2_linear_3307_3802" x1="6.47686" y1="14.6064" x2="7.24928" y2="37.9771" gradientUnits="userSpaceOnUse">
<stop stop-color="#0B0A54"/>
<stop offset="1" stop-color="#5085BC"/>
</linearGradient>
<linearGradient id="paint3_linear_3307_3802" x1="39.6656" y1="28.31" x2="23.4196" y2="39.4595" gradientUnits="userSpaceOnUse">
<stop stop-color="#416AA4"/>
<stop offset="1" stop-color="#0B0A54"/>
</linearGradient>
<linearGradient id="paint4_linear_3307_3802" x1="10.7359" y1="21.7483" x2="18.8054" y2="4.49535" gradientUnits="userSpaceOnUse">
<stop stop-color="#5085BC"/>
<stop offset="1" stop-color="#0B0A54"/>
</linearGradient>
<linearGradient id="paint5_linear_3307_3802" x1="24.7145" y1="37.2892" x2="8.376" y2="33.9061" gradientUnits="userSpaceOnUse">
<stop stop-color="#5085BC"/>
<stop offset="1" stop-color="#0B0A54"/>
</linearGradient>
<linearGradient id="paint6_linear_3307_3802" x1="33.8156" y1="11.3877" x2="34.3316" y2="31.9003" gradientUnits="userSpaceOnUse">
<stop stop-color="#4673AC"/>
<stop offset="1" stop-color="#0B0A54"/>
</linearGradient>
</defs>
</svg>
