<svg width="378" height="45" viewBox="0 0 378 45" fill="none" xmlns="http://www.w3.org/2000/svg">
<g clip-path="url(#clip0_552_1970)">
<path d="M109.306 28.8679C105.684 28.8679 102.914 26.3208 102.914 22.5C102.914 18.6792 105.684 16.1321 109.306 16.1321C112.928 16.1321 115.698 18.6792 115.698 22.5C115.698 26.3208 112.928 28.8679 109.306 28.8679ZM109.306 33.75C115.485 33.75 120.599 28.8679 120.599 22.5C120.599 16.1321 115.485 11.25 109.306 11.25C103.127 11.25 98.0133 16.1321 98.0133 22.5C98.0133 28.8679 103.127 33.75 109.306 33.75ZM89.0643 28.6557H82.8852V23.7736H89.0643C90.7689 23.7736 91.6212 24.8349 91.6212 26.3208C91.6212 27.8066 90.7689 28.6557 89.0643 28.6557ZM86.9336 16.3443C87.9989 16.3443 88.6381 16.9811 88.6381 18.0425C88.6381 18.467 88.4251 19.1038 87.9989 19.5283H82.6721V16.3443H86.9336ZM92.8996 20.3774C93.3257 19.5283 93.7519 18.6792 93.7519 17.8302C93.7519 14.434 90.982 11.8868 87.1466 11.8868H82.8852H78.6237C78.1976 11.8868 77.7715 12.0991 77.7715 12.7358V32.9009C77.7715 33.3255 77.9845 33.75 78.6237 33.75H79.0499H89.4904C93.5388 33.75 96.3088 30.7783 96.3088 26.9575C96.5218 23.7736 95.0303 21.6509 92.8996 20.3774Z" fill="black"/>
<path d="M370.107 28.6557H363.928V23.7736H370.107C371.811 23.7736 372.664 24.8349 372.664 26.3208C372.664 27.8066 371.811 28.6557 370.107 28.6557ZM369.042 19.5283H363.715V16.3443V12.5236C363.715 12.0991 363.289 11.6745 362.862 11.6745H359.453C359.027 11.6745 358.601 11.8868 358.601 12.5236V32.6887C358.601 33.1132 358.814 33.5377 359.453 33.5377H359.879H370.32C374.368 33.5377 377.138 30.566 377.138 26.7453C377.564 22.0755 373.516 19.1038 369.042 19.5283ZM355.831 11.6745H351.57H342.407C341.981 11.6745 341.555 11.8868 341.555 12.5236V15.7075C341.555 16.1321 341.768 16.5566 342.407 16.5566H346.669V32.6887C346.669 33.1132 346.882 33.5377 347.521 33.5377H350.93C351.357 33.5377 351.783 33.3255 351.783 32.6887V16.5566H356.044C356.47 16.5566 356.896 16.3443 356.896 15.7075V12.5236C356.683 11.8868 356.47 11.6745 355.831 11.6745ZM331.115 33.75C336.015 33.75 340.277 30.566 341.555 26.1085C341.768 25.684 341.342 25.2594 340.916 25.2594H337.294C336.868 25.2594 336.655 25.4717 336.441 25.8962C335.589 27.8066 333.458 28.8679 331.115 28.8679C327.279 28.8679 324.722 26.3208 324.722 22.5C324.722 18.6792 327.279 16.1321 331.115 16.1321C333.458 16.1321 335.589 17.1934 336.441 19.1038C336.655 19.5283 336.868 19.7406 337.294 19.7406H340.916C341.342 19.7406 341.768 19.316 341.555 18.8915C340.277 14.434 336.015 11.25 331.115 11.25C324.509 11.25 319.822 16.1321 319.822 22.5C319.822 28.8679 324.509 33.75 331.115 33.75ZM306.611 28.8679C302.989 28.8679 300.219 26.3208 300.219 22.5C300.219 18.6792 302.989 16.1321 306.611 16.1321C310.234 16.1321 313.003 18.6792 313.003 22.5C313.003 26.3208 310.234 28.8679 306.611 28.8679ZM306.611 33.75C312.79 33.75 317.904 28.8679 317.904 22.5C317.904 16.1321 312.79 11.25 306.611 11.25C300.432 11.25 295.318 16.1321 295.318 22.5C295.318 28.8679 300.432 33.75 306.611 33.75ZM291.696 11.6745H288.287C287.861 11.6745 287.435 11.8868 287.435 12.5236V19.9528H281.256V12.5236C281.256 12.0991 281.043 11.6745 280.403 11.6745H276.994C276.568 11.6745 276.142 11.8868 276.142 12.5236V32.6887C276.142 33.1132 276.355 33.5377 276.994 33.5377H280.403C280.83 33.5377 281.256 33.3255 281.256 32.6887V24.6226H287.435V32.6887C287.435 33.1132 287.648 33.5377 288.287 33.5377H291.696C292.122 33.5377 292.549 33.3255 292.549 32.6887V12.5236C292.549 11.8868 292.335 11.6745 291.696 11.6745ZM263.571 33.75C268.471 33.75 272.733 30.566 274.011 26.1085C274.224 25.684 273.798 25.2594 273.372 25.2594H269.75C269.324 25.2594 269.111 25.4717 268.897 25.8962C268.045 27.8066 265.914 28.8679 263.571 28.8679C259.735 28.8679 257.178 26.3208 257.178 22.5C257.178 18.6792 259.735 16.1321 263.571 16.1321C265.914 16.1321 268.045 17.1934 268.897 19.1038C269.111 19.5283 269.324 19.7406 269.75 19.7406H273.372C273.798 19.7406 274.224 19.316 274.011 18.8915C272.733 14.434 268.471 11.25 263.571 11.25C256.965 11.25 252.278 16.1321 252.278 22.5C252.278 28.8679 256.965 33.75 263.571 33.75ZM239.707 25.2594L242.05 16.9811L244.394 25.2594H239.707ZM252.065 32.4764L245.46 12.3113C245.246 11.8868 245.033 11.6745 244.607 11.6745H239.707C239.28 11.6745 238.854 11.8868 238.854 12.3113L232.249 32.4764C232.036 33.1132 232.249 33.3255 232.888 33.3255H236.724C237.15 33.3255 237.576 33.1132 237.576 32.6887L238.428 29.9292H246.099L246.951 32.6887C247.164 33.1132 247.377 33.3255 247.803 33.3255H251.639C252.065 33.3255 252.278 33.1132 252.065 32.4764ZM229.266 11.6745H214.564C214.138 11.6745 213.712 11.8868 213.712 12.5236V32.6887C213.712 33.1132 213.925 33.5377 214.564 33.5377H217.973C218.399 33.5377 218.825 33.3255 218.825 32.6887V16.5566H225.005V32.6887C225.005 33.1132 225.218 33.5377 225.857 33.5377H229.266C229.692 33.5377 230.118 33.3255 230.118 32.6887V12.5236C230.118 11.8868 229.692 11.6745 229.266 11.6745ZM199.862 28.8679C196.24 28.8679 193.47 26.3208 193.47 22.5C193.47 18.6792 196.24 16.1321 199.862 16.1321C203.484 16.1321 206.254 18.6792 206.254 22.5C206.254 26.3208 203.271 28.8679 199.862 28.8679ZM199.862 33.75C206.041 33.75 211.155 28.8679 211.155 22.5C211.155 16.1321 206.041 11.25 199.862 11.25C193.683 11.25 188.569 16.1321 188.569 22.5C188.569 28.8679 193.47 33.75 199.862 33.75ZM136.153 23.7736H142.332C144.037 23.7736 144.889 24.8349 144.889 26.3208C144.889 27.8066 144.25 28.8679 142.332 28.8679H136.153V23.7736ZM131.253 12.5236V32.6887C131.253 33.1132 131.466 33.5377 132.105 33.5377H132.531H142.972C147.02 33.5377 149.79 30.566 149.79 26.7453C149.79 22.2877 145.742 19.316 141.48 19.5283H136.153V16.5566H143.398C143.824 16.5566 144.25 16.3443 144.25 15.7075V12.5236C144.25 12.0991 144.037 11.6745 143.398 11.6745H135.514H132.105C131.466 11.6745 131.253 11.8868 131.253 12.5236ZM176.424 28.6557C174.719 28.6557 173.867 28.0189 173.654 26.9575C173.441 26.533 173.228 26.3208 172.802 26.3208H169.393C168.966 26.3208 168.54 26.533 168.54 27.1698C168.966 31.4151 172.589 33.3255 176.424 33.3255H180.046C184.095 33.3255 186.865 30.3538 186.865 26.533C186.865 23.7736 185.373 21.6509 183.242 20.3774C183.668 19.5283 184.095 18.6792 184.095 17.8302C184.095 14.434 181.325 11.8868 177.489 11.8868C173.441 11.8868 170.032 13.7972 169.606 18.0425C169.606 18.467 169.819 18.8915 170.458 18.8915H173.867C174.293 18.8915 174.506 18.6792 174.719 18.2547C174.933 17.1934 175.785 16.5566 177.489 16.5566C178.555 16.5566 179.194 17.1934 179.194 18.2547C179.194 18.6792 178.981 19.316 178.555 19.7406H177.063C176.637 19.7406 176.211 20.1651 176.211 20.5896V23.3491C176.211 23.7736 176.637 24.1981 177.063 24.1981H179.407C181.112 24.1981 181.964 25.2594 181.964 26.7453C181.964 28.2311 181.325 29.2925 179.407 29.2925H176.424V28.6557ZM164.705 28.6557H157.461V24.8349H163.853C164.279 24.8349 164.705 24.6226 164.705 23.9858V20.8019C164.705 20.3774 164.492 19.9528 163.853 19.9528H157.461V16.5566H164.705C165.131 16.5566 165.557 16.3443 165.557 15.7075V12.5236C165.557 12.0991 165.344 11.6745 164.705 11.6745H157.461H153.199C152.773 11.6745 152.347 11.8868 152.347 12.5236V32.6887C152.347 33.1132 152.56 33.5377 153.199 33.5377H154.051H164.705C165.131 33.5377 165.557 33.3255 165.557 32.6887V29.5047C165.557 28.8679 165.131 28.6557 164.705 28.6557Z" fill="black"/>
<path d="M19.1765 21.6509L11.9321 0H0L13.8497 41.1792C14.4889 42.8774 15.7674 44.1509 17.4719 44.7877C20.455 45.8491 23.651 44.1509 24.5033 41.1792L25.1426 39.4811L19.1765 21.6509Z" fill="black"/>
<path d="M28.5517 3.18396C25.7818 5.3066 23.651 8.06604 22.3726 11.6745L19.1765 21.6509L25.1425 39.4811L33.2393 15.0708C33.6654 13.7972 34.3047 12.9481 35.37 12.3113C36.2223 11.6745 37.5008 11.25 38.7792 11.25H64.561V0H38.5661C34.9439 0 31.5347 1.06132 28.5517 3.18396Z" fill="black" fill-opacity="0.5"/>
<path d="M45.1714 11.6745L38.9923 30.1415C38.5661 31.4151 37.9269 32.2642 36.8615 32.9009C36.0092 33.5377 34.7308 33.9623 33.4524 33.9623H30.2563V45.2123H33.4524C37.0746 45.2123 40.4838 44.1509 43.4668 42.0283C46.2367 39.9057 48.3674 37.1462 49.6459 33.5377L55.825 15.0708C56.2511 13.7972 56.8904 12.9481 57.9557 12.3113C58.808 11.6745 60.0864 11.25 61.3649 11.25H64.561V0H61.3649C57.7426 0 54.3335 1.06132 51.3505 3.18396C48.3674 5.09434 46.2367 8.06604 45.1714 11.6745Z" fill="black"/>
</g>
<defs>
<clipPath id="clip0_552_1970">
<rect width="377.564" height="45" fill="white"/>
</clipPath>
</defs>
</svg>
